# xmcd
#
# Track frame offsets:
#	150
#	12805
#	27263
#	39777
#	53337
#	70523
#	83033
#	110997
#	127172
#	143355
#	155595
#	167425
#	185618
#	200172
#	215015
#
# Disc length: 3277 seconds
#
# Revision: 1
# Processed by: cddbd v1.5.1PL0 Copyright (c) Steve Scherf et al.
# Submitted via: audiograbber 1.83.01
#
DISCID=c60ccb0f
DTITLE=Chubby Checker - Texas Twist
DYEAR=1994
DGENRE=Pop
TTITLE0=Honky Tonk Girls
TTITLE1=202
TTITLE2=Rowdy Country Boys
TTITLE3=What A Mess I'm In
TTITLE4=Just What I Needed
TTITLE5=Slide Up Closer
TTITLE6=Run To Me
TTITLE7=Boys Only Dance
TTITLE8=Only (When You're Here)
TTITLE9=From Here "Til Eternity
TTITLE10=Texas Twist
TTITLE11=On The Other Side Of Nashville
TTITLE12=That's What It Takes
TTITLE13=This Could Be The One
TTITLE14=Take Me Back To Oklahoma
EXTD=Chubby's first Country Album, on Sun-Teec Records
EXTT0=
EXTT1=
EXTT2=
EXTT3=
EXTT4=
EXTT5=
EXTT6=
EXTT7=
EXTT8=
EXTT9=
EXTT10=
EXTT11=
EXTT12=
EXTT13=
EXTT14=
PLAYORDER=
